<svg width="40" height="39" viewBox="0 0 40 39" fill="none" xmlns="http://www.w3.org/2000/svg">
<path fill-rule="evenodd" clip-rule="evenodd" d="M35.768 2.90732L35.6191 2.75879C31.9402 -0.919597 25.9206 -0.919597 22.2423 2.75879L3.66274 21.3383C-0.0160779 25.0171 -0.0160779 31.0363 3.66274 34.7151L3.81126 34.8641C7.48965 38.542 13.5097 38.542 17.1876 34.8641L35.7676 16.2841C39.4464 12.6053 39.4464 6.58571 35.768 2.90732ZM34.1635 4.51142C34.3405 4.68838 34.5055 4.87255 34.6604 5.06267C34.5009 4.8717 34.3349 4.68328 34.1559 4.50378L34.1635 4.51142ZM34.0222 4.37095C33.8427 4.19145 33.6543 4.02637 33.4637 3.86638C33.6534 4.02085 33.8376 4.18593 34.0145 4.36331L34.0222 4.37095ZM15.584 33.2591C12.7806 36.0625 8.21956 36.0625 5.41621 33.2591L5.26726 33.1106C2.46391 30.3072 2.46391 25.7462 5.26726 22.9424L14.557 13.6526L14.5591 13.6548L17.0061 11.2077C18.4048 9.80891 19.629 8.58461 20.6509 7.56302L22.9913 5.22265C25.8489 2.36456 30.2763 1.98051 33.5626 4.06032C30.3497 3.01299 26.6679 3.75138 24.1264 6.29332L21.5807 8.83908C20.033 10.3872 18.0559 12.3643 15.6625 14.7577L24.8742 23.9694L15.584 33.2591ZM16.1492 28.9509L14.0423 31.0583C11.9387 33.1615 8.89175 33.7725 6.23226 32.906C8.95244 34.6272 12.6164 34.3098 14.9822 31.9435L16.919 30.0072C18.2885 28.6373 20.0933 26.8325 22.244 24.6818L21.3316 23.7694L20.1635 24.9372L20.1179 24.9828C18.5484 26.552 17.225 27.8751 16.1492 28.9509ZM21.1373 33.0067L33.7689 20.3755C36.9228 21.9074 39.0964 25.1406 39.0964 28.8823C39.0964 34.1028 34.865 38.335 29.6445 38.335C25.9024 38.335 22.6692 36.1605 21.1373 33.0067ZM35.5003 22.2668L23.0287 34.7381L23.2099 34.9193L35.6815 22.448L35.5003 22.2668ZM36.0783 22.8448L23.6066 35.316L23.7883 35.4972L36.2595 23.026L36.0783 22.8448ZM29.0661 37.544C29.257 37.5563 29.4497 37.5652 29.6441 37.5652C34.4394 37.5652 38.3266 33.678 38.3266 28.8818C38.3266 28.6875 38.3181 28.4957 38.3053 28.3043C37.9985 33.2672 34.0286 37.2367 29.0661 37.544Z" fill="#3388D7"/>
</svg>
